<svg width="1280" height="539" viewBox="0 0 1280 539" fill="none" xmlns="http://www.w3.org/2000/svg">
<g clip-path="url(#clip0_335_2)">
<path fill-rule="evenodd" clip-rule="evenodd" d="M565.721 228.278L651.718 377.246L612.197 377.617L589.238 337.595L566.115 377.403L546.478 377.395L536.421 360.02L569.364 303.374L545.979 262.679L565.721 228.278Z" fill="url(#paint0_linear_335_2)"/>
<path fill-rule="evenodd" clip-rule="evenodd" d="M596.761 166.916L510.749 315.876L490.667 281.835L513.848 241.941L467.812 241.82L458 224.81L468.019 207.412L533.547 207.619L557.098 167.019L596.761 166.916Z" fill="#18FFB1"/>
<path fill-rule="evenodd" clip-rule="evenodd" d="M603.359 285.992L775.368 286.001L755.929 320.412L709.789 320.284L732.702 360.214L722.877 377.215L702.801 377.238L670.216 320.385L623.28 320.29L603.359 285.992Z" fill="#18FFB1"/>
<path fill-rule="evenodd" clip-rule="evenodd" d="M703.474 220.722L617.477 71.7535L656.998 71.3827L679.957 111.405L703.08 71.5966L722.717 71.6044L732.774 88.9799L699.831 145.626L723.217 186.321L703.474 220.722Z" fill="#18FFB1"/>
<path fill-rule="evenodd" clip-rule="evenodd" d="M565.721 228.278L651.718 377.246L612.197 377.617L589.238 337.595L566.115 377.403L546.478 377.395L536.421 360.02L569.364 303.374L545.979 262.679L565.721 228.278Z" fill="#42A5F5"/>
<path fill-rule="evenodd" clip-rule="evenodd" d="M665.481 162.665L493.472 162.657L512.912 128.245L559.051 128.373L536.138 88.4436L545.963 71.4418L566.039 71.4196L598.624 128.272L645.56 128.367L665.481 162.665Z" fill="#42A5F5"/>
<path fill-rule="evenodd" clip-rule="evenodd" d="M672.239 282.061L758.251 133.101L778.333 167.142L755.152 207.036L801.188 207.157L811 224.167L800.981 241.564L735.453 241.357L711.902 281.957L672.239 282.061Z" fill="#42A5F5"/>
</g>
<path d="M432.007 477H426.382L436.624 447.909H443.13L453.385 477H447.76L439.99 453.875H439.763L432.007 477ZM432.192 465.594H447.533V469.827H432.192V465.594ZM457.451 485.182C456.751 485.182 456.102 485.125 455.505 485.011C454.918 484.907 454.449 484.784 454.099 484.642L455.292 480.636C456.04 480.854 456.708 480.958 457.295 480.949C457.882 480.939 458.398 480.755 458.843 480.395C459.298 480.045 459.681 479.457 459.994 478.634L460.434 477.455L452.522 455.182H457.977L463.005 471.659H463.233L468.275 455.182H473.744L465.008 479.642C464.601 480.797 464.061 481.787 463.389 482.611C462.717 483.444 461.893 484.079 460.917 484.514C459.951 484.959 458.796 485.182 457.451 485.182ZM482.956 477.44C481.573 477.44 480.328 477.194 479.22 476.702C478.121 476.2 477.25 475.461 476.606 474.486C475.972 473.51 475.654 472.308 475.654 470.878C475.654 469.647 475.882 468.629 476.336 467.824C476.791 467.019 477.411 466.375 478.197 465.892C478.983 465.409 479.868 465.045 480.853 464.798C481.848 464.543 482.875 464.358 483.936 464.244C485.214 464.112 486.251 463.993 487.047 463.889C487.842 463.776 488.42 463.605 488.779 463.378C489.149 463.141 489.333 462.777 489.333 462.284V462.199C489.333 461.129 489.016 460.3 488.382 459.713C487.747 459.126 486.833 458.832 485.64 458.832C484.381 458.832 483.382 459.107 482.643 459.656C481.914 460.205 481.422 460.854 481.166 461.602L476.365 460.92C476.743 459.595 477.368 458.487 478.24 457.597C479.111 456.697 480.176 456.025 481.436 455.58C482.695 455.125 484.087 454.898 485.612 454.898C486.663 454.898 487.709 455.021 488.751 455.267C489.793 455.513 490.744 455.92 491.606 456.489C492.468 457.047 493.159 457.81 493.68 458.776C494.21 459.741 494.475 460.949 494.475 462.398V477H489.532V474.003H489.362C489.049 474.609 488.609 475.177 488.041 475.707C487.482 476.228 486.777 476.65 485.924 476.972C485.082 477.284 484.092 477.44 482.956 477.44ZM484.291 473.662C485.323 473.662 486.218 473.458 486.975 473.051C487.733 472.634 488.315 472.085 488.723 471.403C489.139 470.722 489.348 469.978 489.348 469.173V466.602C489.187 466.735 488.912 466.858 488.524 466.972C488.145 467.085 487.719 467.185 487.245 467.27C486.772 467.355 486.303 467.431 485.839 467.497C485.375 467.563 484.973 467.62 484.632 467.668C483.865 467.772 483.178 467.942 482.572 468.179C481.966 468.416 481.488 468.747 481.137 469.173C480.787 469.59 480.612 470.13 480.612 470.793C480.612 471.74 480.958 472.455 481.649 472.938C482.34 473.42 483.221 473.662 484.291 473.662ZM504.788 464.216V477H499.646V455.182H504.561V458.889H504.816C505.318 457.668 506.118 456.697 507.217 455.977C508.325 455.258 509.693 454.898 511.322 454.898C512.828 454.898 514.139 455.22 515.257 455.864C516.384 456.508 517.255 457.44 517.87 458.662C518.495 459.884 518.803 461.366 518.794 463.108V477H513.652V463.903C513.652 462.445 513.273 461.304 512.515 460.48C511.767 459.656 510.73 459.244 509.404 459.244C508.505 459.244 507.705 459.443 507.004 459.841C506.313 460.229 505.768 460.793 505.37 461.531C504.982 462.27 504.788 463.165 504.788 464.216ZM528.339 477L520.129 447.909H525.797L531.038 469.287H531.308L536.904 447.909H542.061L547.672 469.301H547.927L553.169 447.909H558.836L550.626 477H545.427L539.603 456.588H539.376L533.538 477H528.339ZM566.624 447.909V450.807C566.624 451.64 566.463 452.507 566.141 453.406C565.828 454.296 565.398 455.149 564.848 455.963C564.299 456.768 563.674 457.459 562.973 458.037L560.587 456.489C561.108 455.703 561.562 454.855 561.951 453.946C562.339 453.027 562.533 451.991 562.533 450.835V447.909H566.624ZM585.211 460.949L580.523 461.46C580.391 460.987 580.158 460.542 579.827 460.125C579.505 459.708 579.069 459.372 578.52 459.116C577.971 458.861 577.299 458.733 576.503 458.733C575.433 458.733 574.533 458.965 573.804 459.429C573.085 459.893 572.73 460.494 572.739 461.233C572.73 461.867 572.962 462.384 573.435 462.781C573.918 463.179 574.713 463.506 575.821 463.761L579.543 464.557C581.607 465.002 583.141 465.707 584.145 466.673C585.158 467.639 585.67 468.903 585.679 470.466C585.67 471.839 585.267 473.051 584.472 474.102C583.686 475.144 582.592 475.958 581.191 476.545C579.789 477.133 578.179 477.426 576.361 477.426C573.691 477.426 571.541 476.867 569.912 475.75C568.283 474.623 567.313 473.056 567 471.048L572.015 470.565C572.242 471.55 572.725 472.294 573.463 472.795C574.202 473.297 575.163 473.548 576.347 473.548C577.569 473.548 578.549 473.297 579.287 472.795C580.035 472.294 580.409 471.673 580.409 470.935C580.409 470.31 580.168 469.794 579.685 469.386C579.212 468.979 578.473 468.667 577.469 468.449L573.748 467.668C571.655 467.232 570.106 466.498 569.103 465.466C568.099 464.424 567.602 463.108 567.611 461.517C567.602 460.172 567.966 459.008 568.705 458.023C569.453 457.028 570.49 456.261 571.816 455.722C573.151 455.172 574.69 454.898 576.432 454.898C578.989 454.898 581.001 455.442 582.469 456.531C583.946 457.62 584.86 459.093 585.211 460.949ZM623.975 447.909V477H619.287L605.58 457.185H605.338V477H600.069V447.909H604.784L618.478 467.739H618.733V447.909H623.975ZM629.49 477V455.182H634.632V477H629.49ZM632.075 452.085C631.261 452.085 630.56 451.815 629.973 451.276C629.386 450.726 629.092 450.068 629.092 449.301C629.092 448.525 629.386 447.866 629.973 447.327C630.56 446.777 631.261 446.503 632.075 446.503C632.899 446.503 633.6 446.777 634.177 447.327C634.764 447.866 635.058 448.525 635.058 449.301C635.058 450.068 634.764 450.726 634.177 451.276C633.6 451.815 632.899 452.085 632.075 452.085ZM644.124 455.182L648.527 463.236L653.002 455.182H658.442L651.865 466.091L658.556 477H653.144L648.527 469.145L643.953 477H638.499L645.147 466.091L638.669 455.182H644.124ZM688.641 462.455C688.641 465.589 688.054 468.274 686.88 470.509C685.715 472.734 684.124 474.438 682.107 475.622C680.099 476.806 677.822 477.398 675.275 477.398C672.727 477.398 670.445 476.806 668.428 475.622C666.42 474.429 664.829 472.72 663.655 470.494C662.49 468.259 661.908 465.58 661.908 462.455C661.908 459.32 662.49 456.64 663.655 454.415C664.829 452.18 666.42 450.471 668.428 449.287C670.445 448.103 672.727 447.511 675.275 447.511C677.822 447.511 680.099 448.103 682.107 449.287C684.124 450.471 685.715 452.18 686.88 454.415C688.054 456.64 688.641 459.32 688.641 462.455ZM683.343 462.455C683.343 460.248 682.997 458.387 682.306 456.872C681.624 455.348 680.677 454.197 679.465 453.42C678.253 452.634 676.856 452.241 675.275 452.241C673.693 452.241 672.296 452.634 671.084 453.42C669.872 454.197 668.92 455.348 668.229 456.872C667.547 458.387 667.206 460.248 667.206 462.455C667.206 464.661 667.547 466.527 668.229 468.051C668.92 469.566 669.872 470.717 671.084 471.503C672.296 472.279 673.693 472.668 675.275 472.668C676.856 472.668 678.253 472.279 679.465 471.503C680.677 470.717 681.624 469.566 682.306 468.051C682.997 466.527 683.343 464.661 683.343 462.455ZM709.433 455.906C709.3 454.666 708.742 453.7 707.757 453.009C706.781 452.317 705.512 451.972 703.95 451.972C702.851 451.972 701.909 452.137 701.123 452.469C700.337 452.8 699.736 453.25 699.319 453.818C698.903 454.386 698.69 455.035 698.68 455.764C698.68 456.37 698.817 456.896 699.092 457.341C699.376 457.786 699.76 458.165 700.243 458.477C700.725 458.78 701.261 459.036 701.848 459.244C702.435 459.453 703.027 459.628 703.623 459.77L706.35 460.452C707.449 460.707 708.505 461.053 709.518 461.489C710.541 461.924 711.455 462.473 712.26 463.136C713.074 463.799 713.718 464.599 714.191 465.537C714.665 466.474 714.902 467.573 714.902 468.832C714.902 470.537 714.466 472.038 713.595 473.335C712.724 474.623 711.464 475.632 709.816 476.361C708.178 477.08 706.194 477.44 703.865 477.44C701.601 477.44 699.636 477.09 697.97 476.389C696.313 475.688 695.015 474.666 694.078 473.321C693.15 471.976 692.648 470.338 692.572 468.406H697.757C697.833 469.42 698.145 470.262 698.694 470.935C699.243 471.607 699.958 472.109 700.839 472.44C701.729 472.772 702.724 472.938 703.822 472.938C704.968 472.938 705.972 472.767 706.833 472.426C707.705 472.076 708.386 471.593 708.879 470.977C709.371 470.352 709.622 469.623 709.632 468.79C709.622 468.032 709.4 467.407 708.964 466.915C708.529 466.413 707.918 465.996 707.132 465.665C706.355 465.324 705.446 465.021 704.404 464.756L701.095 463.903C698.699 463.288 696.805 462.355 695.413 461.105C694.03 459.846 693.339 458.174 693.339 456.091C693.339 454.377 693.803 452.876 694.731 451.588C695.669 450.3 696.942 449.301 698.552 448.591C700.162 447.871 701.985 447.511 704.021 447.511C706.085 447.511 707.894 447.871 709.447 448.591C711.01 449.301 712.236 450.291 713.126 451.56C714.016 452.819 714.475 454.268 714.504 455.906H709.433ZM754.422 457.724H749.11C748.958 456.853 748.679 456.081 748.272 455.409C747.864 454.727 747.358 454.15 746.752 453.676C746.146 453.203 745.454 452.848 744.678 452.611C743.911 452.365 743.082 452.241 742.192 452.241C740.611 452.241 739.209 452.639 737.988 453.435C736.766 454.221 735.81 455.376 735.118 456.901C734.427 458.416 734.081 460.267 734.081 462.455C734.081 464.68 734.427 466.555 735.118 468.08C735.819 469.595 736.775 470.741 737.988 471.517C739.209 472.284 740.606 472.668 742.178 472.668C743.049 472.668 743.864 472.554 744.621 472.327C745.388 472.09 746.075 471.744 746.681 471.29C747.296 470.835 747.812 470.277 748.229 469.614C748.655 468.951 748.949 468.193 749.11 467.341L754.422 467.369C754.223 468.752 753.792 470.049 753.13 471.261C752.476 472.473 751.619 473.544 750.559 474.472C749.498 475.39 748.257 476.11 746.837 476.631C745.417 477.142 743.84 477.398 742.107 477.398C739.55 477.398 737.268 476.806 735.26 475.622C733.253 474.438 731.671 472.729 730.516 470.494C729.361 468.259 728.783 465.58 728.783 462.455C728.783 459.32 729.365 456.64 730.53 454.415C731.695 452.18 733.281 450.471 735.289 449.287C737.296 448.103 739.569 447.511 742.107 447.511C743.726 447.511 745.232 447.739 746.624 448.193C748.016 448.648 749.257 449.315 750.346 450.196C751.435 451.067 752.329 452.137 753.03 453.406C753.74 454.666 754.204 456.105 754.422 457.724ZM768.538 477.426C766.407 477.426 764.561 476.957 762.998 476.02C761.436 475.082 760.224 473.771 759.362 472.085C758.51 470.4 758.083 468.43 758.083 466.176C758.083 463.922 758.51 461.948 759.362 460.253C760.224 458.558 761.436 457.241 762.998 456.304C764.561 455.366 766.407 454.898 768.538 454.898C770.669 454.898 772.515 455.366 774.078 456.304C775.64 457.241 776.848 458.558 777.7 460.253C778.562 461.948 778.993 463.922 778.993 466.176C778.993 468.43 778.562 470.4 777.7 472.085C776.848 473.771 775.64 475.082 774.078 476.02C772.515 476.957 770.669 477.426 768.538 477.426ZM768.566 473.307C769.722 473.307 770.688 472.99 771.464 472.355C772.241 471.711 772.818 470.849 773.197 469.77C773.585 468.69 773.779 467.488 773.779 466.162C773.779 464.827 773.585 463.619 773.197 462.54C772.818 461.451 772.241 460.584 771.464 459.94C770.688 459.296 769.722 458.974 768.566 458.974C767.383 458.974 766.398 459.296 765.612 459.94C764.835 460.584 764.253 461.451 763.865 462.54C763.486 463.619 763.297 464.827 763.297 466.162C763.297 467.488 763.486 468.69 763.865 469.77C764.253 470.849 764.835 471.711 765.612 472.355C766.398 472.99 767.383 473.307 768.566 473.307ZM788.499 464.216V477H783.357V455.182H788.272V458.889H788.527C789.029 457.668 789.829 456.697 790.928 455.977C792.036 455.258 793.404 454.898 795.033 454.898C796.539 454.898 797.85 455.22 798.968 455.864C800.095 456.508 800.966 457.44 801.581 458.662C802.206 459.884 802.514 461.366 802.505 463.108V477H797.363V463.903C797.363 462.445 796.984 461.304 796.226 460.48C795.478 459.656 794.441 459.244 793.115 459.244C792.216 459.244 791.416 459.443 790.715 459.841C790.024 460.229 789.479 460.793 789.081 461.531C788.693 462.27 788.499 463.165 788.499 464.216ZM818.783 455.182V459.159H805.885V455.182H818.783ZM809.11 477V453.122C809.11 451.654 809.413 450.433 810.019 449.457C810.634 448.482 811.458 447.753 812.49 447.27C813.523 446.787 814.668 446.545 815.928 446.545C816.818 446.545 817.609 446.616 818.3 446.759C818.991 446.901 819.503 447.028 819.834 447.142L818.811 451.119C818.594 451.053 818.319 450.987 817.988 450.92C817.656 450.845 817.287 450.807 816.88 450.807C815.923 450.807 815.246 451.039 814.848 451.503C814.46 451.957 814.266 452.611 814.266 453.463V477H809.11ZM822.81 477V455.182H827.952V477H822.81ZM825.395 452.085C824.581 452.085 823.88 451.815 823.293 451.276C822.706 450.726 822.412 450.068 822.412 449.301C822.412 448.525 822.706 447.866 823.293 447.327C823.88 446.777 824.581 446.503 825.395 446.503C826.219 446.503 826.92 446.777 827.498 447.327C828.085 447.866 828.378 448.525 828.378 449.301C828.378 450.068 828.085 450.726 827.498 451.276C826.92 451.815 826.219 452.085 825.395 452.085ZM842.728 485.636C840.882 485.636 839.296 485.385 837.97 484.884C836.644 484.391 835.579 483.728 834.774 482.895C833.969 482.062 833.41 481.138 833.098 480.125L837.728 479.003C837.937 479.429 838.24 479.85 838.637 480.267C839.035 480.693 839.57 481.044 840.243 481.318C840.924 481.602 841.781 481.744 842.814 481.744C844.272 481.744 845.479 481.389 846.436 480.679C847.392 479.978 847.87 478.823 847.87 477.213V473.08H847.615C847.35 473.61 846.961 474.154 846.45 474.713C845.948 475.272 845.28 475.741 844.447 476.119C843.623 476.498 842.586 476.688 841.336 476.688C839.66 476.688 838.14 476.295 836.777 475.509C835.422 474.713 834.343 473.529 833.538 471.957C832.743 470.376 832.345 468.397 832.345 466.02C832.345 463.624 832.743 461.602 833.538 459.955C834.343 458.297 835.427 457.043 836.791 456.19C838.154 455.329 839.674 454.898 841.35 454.898C842.629 454.898 843.68 455.116 844.504 455.551C845.337 455.977 846 456.493 846.493 457.099C846.985 457.696 847.359 458.259 847.615 458.79H847.899V455.182H852.97V477.355C852.97 479.221 852.525 480.764 851.635 481.986C850.744 483.207 849.528 484.121 847.984 484.727C846.44 485.333 844.689 485.636 842.728 485.636ZM842.771 472.653C843.86 472.653 844.788 472.388 845.555 471.858C846.322 471.328 846.904 470.565 847.302 469.571C847.7 468.577 847.899 467.384 847.899 465.991C847.899 464.618 847.7 463.416 847.302 462.384C846.914 461.351 846.336 460.551 845.569 459.983C844.812 459.405 843.879 459.116 842.771 459.116C841.625 459.116 840.669 459.415 839.902 460.011C839.135 460.608 838.557 461.427 838.169 462.469C837.78 463.501 837.586 464.675 837.586 465.991C837.586 467.327 837.78 468.496 838.169 469.5C838.566 470.494 839.149 471.271 839.916 471.83C840.692 472.379 841.644 472.653 842.771 472.653Z" fill="#E6EDF3"/>
<defs>
<linearGradient id="paint0_linear_335_2" x1="538.766" y1="232.957" x2="601.745" y2="341.882" gradientUnits="userSpaceOnUse">
<stop stop-color="#699AD7"/>
<stop offset="0.243452" stop-color="#7EB1DD"/>
<stop offset="1" stop-color="#7EBAE4"/>
</linearGradient>
<clipPath id="clip0_335_2">
<rect width="353" height="353" fill="white" transform="translate(458 48)"/>
</clipPath>
</defs>
</svg>